# xmcd
#
# Track frame offsets: 
#        150
#        14312
#        30252
#        43607
#        61162
#        78100
#        93847
#        107247
#        122075
#        143500
#        169900
#        184020
#        201480
#        214980
#        233820
#        245750
#        261625
#        279487
#        307875
#
# Disc length: 4319 seconds
#
# Revision: 0
# Processed by: cddbd v1.5.2PL0 Copyright (c) Steve Scherf et al.
# Submitted via: ExactAudioCopy v0.99pb5
#
DISCID=0710dd13
DTITLE=Валерий Ободзинский - Карнавал любви Валерия Ободзинского  МА-0
DTITLE=02 MURZIK
DYEAR=1994
DGENRE=Retro
TTITLE0=Карнавал
TTITLE1=Восточная песня
TTITLE2=Песенка без слов
TTITLE3=Белые крылья
TTITLE4=Русское поле
TTITLE5=Вечная весна
TTITLE6=Анжела
TTITLE7=Что-то случилось
TTITLE8=Запомни
TTITLE9=Раба любви
TTITLE10=Листопад
TTITLE11=Первое апреля
TTITLE12=Пойми меня
TTITLE13=Олеандр
TTITLE14=Наше танго
TTITLE15=Эти глаза напротив
TTITLE16=Золото Маккены
TTITLE17=Аравийская песня
TTITLE18=О жизнь моя, постой не уходи
EXTD=
EXTT0=
EXTT1=
EXTT2=
EXTT3=
EXTT4=
EXTT5=
EXTT6=
EXTT7=
EXTT8=
EXTT9=
EXTT10=
EXTT11=
EXTT12=
EXTT13=
EXTT14=
EXTT15=
EXTT16=
EXTT17=
EXTT18=
PLAYORDER=
